<svg xmlns="http://www.w3.org/2000/svg" viewBox="0 0 300 273">
  <defs>
    <style>
      .cls-1 {
        fill-rule: evenodd;
      }
    </style>
  </defs>
  <path id="delete.svg" data-name="delete.svg" class="cls-1" d="M1353.01,587.758H1424v15.757H1124V587.758h71.14V572c0-1.835-.29-4.627.15-6.153V564.5h0.15v-0.9h0.15l0.15-1.5h0.15v-0.6h0.15l0.15-1.051h0.15V560h0.15l0.15-.9h0.15v-0.3h0.15v-0.45h0.15v-0.3h0.15V557.6h0.15l0.3-.9h0.15v-0.3h0.15v-0.3h0.15v-0.3h0.15l0.3-.9,0.3-.15,0.15-.6,0.3-.15v-0.3l0.3-.15v-0.3h0.15l0.15-.45,0.3-.15v-0.3l0.3-.15,0.15-.451,0.6-.45v-0.3l1.05-.9,0.15-.45,0.9-.751,0.15-.3h0.3l0.9-1.05h0.3l0.45-.6h0.3l0.3-.451h0.3l0.3-.45h0.3l0.15-.3,0.45-.15v-0.15l0.6-.15,0.15-.3,0.6-.15,0.15-.3,0.9-.3v-0.15h0.3v-0.15h0.3v-0.15l0.9-.3v-0.15h0.45v-0.15h0.3v-0.15l0.75-.15v-0.15q2.565-.675,5.11-1.351l2.55-.15c1.49-.42,4.2-0.15,6-0.15h95.3c2.34,0,5.16-.243,7.05.3h1.05q2.55,0.675,5.11,1.351v0.15l0.75,0.15v0.15h0.3v0.15h0.45v0.15l0.9,0.3v0.15h0.3v0.15h0.3v0.15l0.9,0.3,0.15,0.3,0.6,0.15,0.15,0.3,0.6,0.15v0.15l0.45,0.15,0.15,0.3h0.3l0.3,0.45h0.3l0.3,0.451h0.3l0.45,0.6h0.3l0.9,1.05h0.3l0.75,0.9,0.3,0.15,0.15,0.45,1.05,0.9v0.3l0.6,0.45,0.15,0.451,0.3,0.15v0.3l0.3,0.15,0.15,0.45h0.15v0.3l0.3,0.15v0.3l0.3,0.15,0.15,0.6,0.3,0.15,0.3,0.9h0.15v0.3h0.15v0.3h0.15v0.3h0.15l0.3,0.9h0.15v0.45h0.15v0.3h0.15v0.45h0.15v0.3h0.15l0.15,0.9h0.15v0.45h0.15l0.15,1.051h0.15v0.6h0.15l0.15,1.5h0.15v0.9h0.15v1.35c0.44,1.528.15,4.316,0.15,6.153v15.756Zm-142.27,0h126.67V572.9c0-1.823.28-4.643-.15-6.152v-0.9L1336.21,563l-0.3-.15-0.15-.6h-0.15l-0.15-.45-0.3-.15v-0.3c-0.45-.4-0.9-0.8-1.36-1.2l-0.75-.9h-0.3l-0.3-.451h-0.3l-0.15-.3-0.6-.15V558.2h-0.3v-0.15h-0.3V557.9l-0.9-.3v-0.15h-0.45V557.3H1329v-0.15h-0.6V557h-0.6v-0.15h-1.05c-1.54-.439-4.03-0.15-5.85-0.15h-93.35c-1.83,0-4.63-.284-6.15.15h-1.05V557h-0.6v0.15h-0.6v0.15h-0.45v0.15h-0.45v0.15l-0.9.3v0.15h-0.3v0.15h-0.3v0.15l-0.6.15-0.15.3h-0.3l-0.3.451h-0.3l-0.75.9c-0.46.4-.91,0.8-1.36,1.2v0.3l-0.3.15-0.15.45h-0.15l-0.15.6-0.3.15-1.05,2.851v0.9c-0.43,1.513-.15,4.326-0.15,6.152v14.856Zm-39.32,39.016h15.46c0.4,1.1.15,3.125,0.15,4.5V784.79c0.38,0.445.1,1.3,0.3,1.95h0.15v0.6h0.15v0.6h0.15v0.6h0.15v0.45h0.15v0.45h0.15v0.3h0.15v0.45h0.15l0.3,0.9h0.15v0.3h0.15l0.3,0.9,0.3,0.15v0.3h0.15l0.15,0.45,0.3,0.15v0.3l0.45,0.3v0.3l0.75,0.6,1.2,1.35h0.3l0.3,0.45,0.6,0.15c0.05,0.1.11,0.2,0.16,0.3l0.6,0.15v0.15l0.6,0.15v0.15c2.37,1.036,7.72.6,11.1,0.6h141.37l3.75-.15a11.085,11.085,0,0,0,5.86-4.2l0.45-.3v-0.3l0.3-.15,0.15-.45h0.15v-0.3l0.3-.15,1.65-3.752v-0.6h0.15v-0.6h0.15v-0.6h0.15v-0.9h0.15v-1.05h0.15V626.924c1.1-.4,3.53-0.15,4.95-0.15h10.66V785.39h-0.15v1.65h-0.15v1.051h-0.15v0.9h-0.15l-0.15,1.5h-0.15v0.6h-0.15v0.6h-0.15v0.6h-0.15v0.45h-0.15v0.6h-0.15v0.45h-0.15v0.45h-0.15v0.451h-0.15v0.3h-0.15v0.45h-0.15v0.3h-0.15v0.45h-0.15c-0.06.2-.11,0.4-0.16,0.6h-0.15v0.451h-0.15l-0.3.9h-0.15v0.3h-0.15l-0.3.9-0.3.15-0.3.9h-0.15l-0.15.45-0.3.15-0.15.6-0.3.151v0.3l-0.45.3v0.3l-0.45.3v0.3l-0.45.3v0.3l-0.75.6v0.3l-1.65,1.5-1.35,1.5h-0.3l-0.45.6h-0.3l-0.45.6h-0.3l-0.15.3-0.45.15v0.15h-0.3l-0.15.3h-0.3l-0.15.3h-0.3l-0.15.3-0.9.3-0.15.3-0.6.15v0.15l-0.6.151v0.15h-0.45v0.15l-0.6.15v0.15l-0.75.15v0.15c-1.45.4-2.9,0.8-4.36,1.2l-2.4.15c-1.6.451-4.53,0.15-6.45,0.151H1201.29l-6-.151V813.6l-1.66-.15V813.3h-0.6v-0.15h-0.6V813h-0.6v-0.15h-0.45V812.7h-0.45v-0.15l-0.9-.15v-0.15l-0.75-.15v-0.15l-0.6-.15v-0.15h-0.45V811.5l-0.6-.151V811.2l-0.6-.15-0.15-.3-0.9-.3-0.15-.3h-0.3l-0.15-.3h-0.3l-0.15-.3h-0.3l-0.15-.3h-0.3l-0.15-.3h-0.3l-0.15-.3h-0.15l-0.15-.3h-0.3l-0.45-.6h-0.3l-1.35-1.5-1.65-1.5v-0.3l-0.75-.6v-0.3l-0.45-.3-0.15-.45-0.3-.15v-0.3l-0.3-.15v-0.3l-0.45-.3-0.15-.6-0.3-.15-0.15-.45h-0.15l-0.3-.9-0.3-.15-0.3-.9h-0.15v-0.3h-0.15l-0.3-.9h-0.15l-0.15-.751h-0.15v-0.3h-0.16v-0.45h-0.15v-0.3h-0.15v-0.45h-0.15v-0.3h-0.15l-0.15-.9c-0.56-1.445-.87-3.222-1.35-4.8l-0.15-1.951h-0.15v-1.65h-0.15V626.774Zm47.43,15.607h15.76v109.1h-15.76v-109.1Zm47.42,0h15.61a12.112,12.112,0,0,1,.15,3.3V751.326c-1.1.4-3.54,0.15-4.95,0.15h-10.81a9.338,9.338,0,0,1-.15-2.551V645.232A10.372,10.372,0,0,1,1266.27,642.381Zm47.27,0h15.76v109.1h-15.76v-109.1Z" transform="translate(-1124 -541)"/>
</svg>
