<?xml version="1.0" standalone="no"?><!DOCTYPE svg PUBLIC "-//W3C//DTD SVG 1.1//EN" "http://www.w3.org/Graphics/SVG/1.1/DTD/svg11.dtd"><svg t="1499324642379" class="icon" style="" viewBox="0 0 1024 1024" version="1.1" xmlns="http://www.w3.org/2000/svg" p-id="1428" xmlns:xlink="http://www.w3.org/1999/xlink" width="200" height="200"><defs><style type="text/css"></style></defs><path d="M512.00512 1024c-25.60512 0-44.80512-6.4-64.01024-25.6-19.2-19.2-25.59488-38.39488-25.59488-64v-332.8h-332.8c-25.6 0-44.8-6.4-64-25.6s-25.6-38.40512-25.6-63.99488C0 486.4 6.4 467.2 25.6 448s38.4-25.59488 64-25.59488h332.8V89.6c0-25.6 6.39488-44.8 25.59488-64C467.2 6.4 486.4 0 512 0c25.58976 0 44.8 6.4 64 25.6 19.19488 19.2 25.6 38.4 25.6 64v332.8h332.8c25.60512 0 44.8 6.39488 64.00512 25.59488C1017.6 467.2 1024 486.4 1024 512.00512c0 25.58976-6.4 44.79488-25.59488 63.99488-19.20512 19.2-38.4 25.6-64.00512 25.6h-332.8v332.8c0 25.60512-6.4 44.8-25.6 64s-38.40512 25.6-63.99488 25.6z" p-id="1429"></path></svg>