<?xml version="1.0" standalone="no"?><!DOCTYPE svg PUBLIC "-//W3C//DTD SVG 1.1//EN" "http://www.w3.org/Graphics/SVG/1.1/DTD/svg11.dtd"><svg t="1499151980342" class="icon" style="" viewBox="0 0 1024 1024" version="1.1" xmlns="http://www.w3.org/2000/svg" p-id="1656" xmlns:xlink="http://www.w3.org/1999/xlink" width="200" height="200"><defs><style type="text/css"></style></defs><path d="M375.808 1.024" p-id="1657"></path><path d="M482.304 652.288l0-95.232c0-28.672 9.216-46.08 34.816-62.464l54.272-36.864c19.456-13.312 31.744-34.816 33.792-59.392 2.048-22.528-5.12-44.032-19.456-57.344-18.432-18.432-46.08-28.672-74.752-28.672-8.192 0-16.384 1.024-23.552 2.048-79.872 16.384-79.872 84.992-79.872 117.76l0 3.072-63.488 0c1.024-70.656 12.288-100.352 47.104-139.264 28.672-31.744 67.584-48.128 115.712-48.128 15.36 0 30.72 2.048 47.104 5.12 51.2 10.24 122.88 62.464 122.88 146.432 0 70.656-49.152 101.376-78.848 118.784-3.072 2.048-6.144 4.096-9.216 6.144-27.648 18.432-41.984 40.96-41.984 68.608l0 58.368L482.304 651.264z" p-id="1658"></path><path d="M514.048 788.48c-18.432 0-33.792-15.36-33.792-33.792 0-18.432 15.36-33.792 33.792-33.792 18.432 0 33.792 15.36 33.792 33.792C547.84 774.144 532.48 788.48 514.048 788.48z" p-id="1659"></path></svg>
